<svg id="visual" viewBox="0 0 2000 800" width="2000" height="800" xmlns="http://www.w3.org/2000/svg" xmlns:xlink="http://www.w3.org/1999/xlink" version="1.1"><rect x="0" y="0" width="2000" height="800" fill="#021A3A"></rect><defs><linearGradient id="grad1_0" x1="60%" y1="0%" x2="100%" y2="100%"><stop offset="0%" stop-color="#021a3a" stop-opacity="1"></stop><stop offset="100%" stop-color="#021a3a" stop-opacity="1"></stop></linearGradient></defs><defs><linearGradient id="grad2_0" x1="0%" y1="0%" x2="40%" y2="100%"><stop offset="0%" stop-color="#021a3a" stop-opacity="1"></stop><stop offset="100%" stop-color="#021a3a" stop-opacity="1"></stop></linearGradient></defs><g transform="translate(2000, 0)"><path d="M0 480C-42.7 425.9 -85.5 371.8 -147.7 356.6C-210 341.5 -291.7 365.2 -339.4 339.4C-387.1 313.6 -400.8 238.2 -418.5 173.4C-436.3 108.5 -458.1 54.3 -480 0L0 0Z" fill="#ffffff"></path></g><g transform="translate(0, 800)"><path d="M0 -480C65.9 -477.3 131.8 -474.5 183.7 -443.5C235.6 -412.4 273.6 -352.9 300.5 -300.5C327.4 -248.1 343.3 -202.8 371.4 -153.8C399.5 -104.9 439.7 -52.5 480 0L0 0Z" fill="#ffffff"></path></g></svg>